<?xml version="1.0" encoding="utf-8"?>
<!-- Generator: Adobe Illustrator 28.3.0, SVG Export Plug-In . SVG Version: 6.00 Build 0)  -->
<svg version="1.1" id="Livello_1" xmlns="http://www.w3.org/2000/svg" xmlns:xlink="http://www.w3.org/1999/xlink" x="0px" y="0px"
	 viewBox="0 0 749.5 116.6" style="enable-background:new 0 0 749.5 116.6;" xml:space="preserve">
<style type="text/css">
	.st0{fill:#FFFFFF;}
</style>
<g>
	<path class="st0" d="M65.2,93c-1.3,0.2-4.1,0.5-5.7,0.5c-9,0-13.2-4.3-15.1-10.4c0,0,0-0.1,0-0.1c-0.1-0.4-0.2-0.8-0.3-1.2
		c-0.2-0.7-0.3-1.5-0.5-2.3c0-0.1,0-0.1,0-0.2c-0.4-2.4-0.5-5-0.5-7.6V61.4v-1.3v-1.6V38.9v-1.8V37h1.2H53V18.5H43v-14h-7
		c-19.6,0-29.7,7.7-29.7,24.4v1.4v2.1v2.6v26.6v1.3v1.9v11.2c0,6.6,1.5,12.3,4.2,17.2l0,0c0,0,0.5,0.9,1.5,2.4c0.7,1,1,1.4,1,1.4
		l0,0c5.7,7.4,14.7,12.1,25.1,13.9C38.2,110.7,58.7,105.9,65.2,93z"/>
	<path class="st0" d="M70.2,30.4L70.2,30.4c0,0-0.2,0.3-0.4,0.8c0,0,0,0.1-0.1,0.1c-0.2,0.4-0.4,0.9-0.6,1.5
		c-0.5,1.5-0.8,2.8-0.8,2.8l0,0c-0.7,3.2-0.6,6.7,0.2,10.4c1.7,7.8,3.4,14,4.6,20.1C74,71,74.7,76,74.7,81.7c0,2-0.2,3.8-0.6,5.7
		c-2,10-9.6,18.1-23.4,23.2L51,112c1.2,0.1,4.5,0.2,11.7,0.2c15.1,0,32-3.5,40.9-13.7l0,0c0,0,0.3-0.3,0.6-0.7c0,0,0.1-0.1,0.1-0.1
		c0.2-0.3,0.5-0.7,0.8-1c0.6-0.8,0.9-1.3,0.9-1.3l0,0c2.4-3.8,3.7-8.4,3.7-13.8c0-4.2-1.3-11.8-2.7-18.6l0,0c0,0-0.1-0.7-0.3-1.4
		c0,0,0,0,0,0c0,0,0,0,0,0c-0.1-0.5-0.2-1-0.3-1.3c0,0,0,0,0,0c-1.1-5.4-2.1-9.9-2.3-11.1c-0.2-1.8-0.3-3.3-0.1-4.6c0,0,0,0,0,0
		c0.1-0.4,0.1-0.8,0.2-1.2c1.1-4.7,5.3-6.2,11.2-6.1V18.5H91.8C81.5,18.5,73.8,23.2,70.2,30.4z"/>
	<polygon class="st0" points="147.4,96.1 158.9,96.1 158.9,71.6 182.5,71.6 182.5,61.7 158.9,61.7 158.9,46.4 185.7,46.4 
		185.7,36.3 147.4,36.3 	"/>
	<path class="st0" d="M208.6,51.2c-6.6,0-13.1,2.6-17.8,6.3l3.7,6.6c4.2-2.5,7.6-4.2,13-4.2c4.7,0,7.5,2.2,7.5,7.5v3.2
		c-2.1-0.2-3.7-0.3-6.2-0.3c-15,0-20,6.9-20,13.9c0,8.5,5.6,12.9,13.5,12.9c6.1,0,10.6-2.3,13.8-7l1.2,5.9h8.8V67.3
		C225.9,56,219.6,51.2,208.6,51.2z M214.9,79.2c0,4.6-3.6,9.8-9.3,9.8c-3.9,0-6-1.7-6-4.9c0-4.9,4.1-6.5,10-6.5c2.2,0,4,0.2,5.2,0.4
		V79.2z"/>
	<path class="st0" d="M277.6,88.7c-2,0-2.8-1-2.8-3.6V60.5h8.1v-8.3h-8.1V39.7h-9.6L264,52.2h-14V39.8h-9.5l-1.2,12.5l-6,1.7v6.6
		h5.8v26.8c0,6.2,3.1,9.8,9.6,9.8c3.2,0,6.2-0.6,9.1-1.7l-1.1-7.5c-1.2,0.4-2.4,0.7-3.7,0.7c-2,0-3.2-0.8-3.2-3.4V60.5h13.9v26.8
		c0,6.2,3.2,9.8,9.7,9.8c3.3,0,7.4-0.7,10.3-1.7l-1.1-7.6C281.5,88.3,278.9,88.7,277.6,88.7z"/>
	<path class="st0" d="M317.3,83.1c-2.2,2.5-5.1,4.7-9.1,4.7c-5,0-6.6-3.1-6.6-8.5V52.2h-11V82c0,9.1,3.7,15.2,13.9,15.2
		c6.4,0,10.7-3.2,13.9-6.8l0.9,5.7h9V52.2h-11V83.1z"/>
	<path class="st0" d="M349.3,58.5l-1-6.3h-8.8v43.8h11V67c1.4-2.4,4.5-5.4,7.8-5.4c1.6,0,2.7,0.2,4.2,0.6l0.8-10
		c-1.2-0.5-2.7-0.9-4.3-0.9C355,51.2,351.4,54.5,349.3,58.5z"/>
	<path class="st0" d="M388.7,51.2c-13,0-21.3,9.1-21.3,23.2c0,14.7,8,22.7,21.2,22.7c6.6,0,12.6-1.8,17.8-5.6l-3.6-7.2
		C398,86.9,394.4,88,390,88c-7.5,0-10.4-4.2-10.9-10.1h28.3c0.1-0.7,0.2-4.4,0.2-5.4C407.6,58.3,400.9,51.2,388.7,51.2z M379.2,69.9
		c0.2-3.6,2.3-10.4,9.6-10.4c6.2,0,8.2,4.8,8.2,10.4H379.2z"/>
	<rect x="417.7" y="52.6" class="st0" width="4.6" height="43.5"/>
	<path class="st0" d="M420.1,37.3c-2,0-3.6,1.3-3.6,3.2c0,1.9,1.6,3.2,3.6,3.2c2,0,3.4-1.3,3.4-3.2
		C423.5,38.6,422.1,37.3,420.1,37.3z"/>
	<path class="st0" d="M454.3,51.6c-6,0-10.9,3.2-14.6,7.7v-6.7h-4.5v43.5h4.7v-32c2.2-2.7,7-8.1,13.4-8.1c6.9,0,9.6,4.2,9.6,12.8
		v27.3h4.7V68.2C467.6,58.6,464.7,51.6,454.3,51.6z"/>
	<path class="st0" d="M503.6,92.5c-12,0-19.9-9.4-19.9-26.8c0-15.3,7.1-25.9,19.9-25.9c10.5,0,14.7,6.6,15.3,13.3h4.9
		c-0.2-11-8.8-17.8-20.1-17.8c-17.1,0-25.3,14-25.3,30.7c0,16.8,7.4,31.1,25,31.1c8.6,0,15.5-3.6,20.5-9l-3-3.3
		C516.6,89.2,511.6,92.5,503.6,92.5z"/>
	<rect x="533.3" y="36.3" class="st0" width="4.7" height="59.8"/>
	<path class="st0" d="M567.5,51.6c-11.7,0-19.2,8.7-19.2,22.9c0,14,7,22.6,19,22.6c11.9,0,19.6-8.5,19.6-22.7
		C586.9,60,579.2,51.6,567.5,51.6z M567.5,92.7c-8.1,0-14.2-5.8-14.2-18.3c0-12.4,6.1-18.4,14.2-18.4c8.1,0,14.4,5.8,14.4,18.4
		C581.9,86.9,575.5,92.7,567.5,92.7z"/>
	<path class="st0" d="M624.4,84.6c-3.1,3.8-7.6,8.1-13.5,8.1c-7.1,0-9.3-4.3-9.3-12.1v-28h-4.8v28.9c0,8.4,2.4,15.6,13.3,15.6
		c6.9,0,11.9-4.2,14.6-7.6v6.6h4.5V52.6h-4.7V84.6z"/>
	<path class="st0" d="M671.7,59.1c-3.2-4-7.5-7.6-14.4-7.6c-11.6,0-17.8,9.3-17.8,22.8c0,13.4,5.5,22.7,17.8,22.7
		c7.8,0,12.5-4.6,14.6-7.2l0.1,6.2h4.4V36.3h-4.6V59.1z M671.6,85.1c-2.2,2.7-6.6,7.6-13.3,7.6c-10.5,0-13.9-9.4-13.9-18.3
		c0-11.9,5.5-18.4,13.4-18.4c6.7,0,11.5,5.6,13.7,8.6V85.1z"/>
	<path class="st0" d="M692.7,89.2c-2.2,0-4,1.4-4,4c0,2.4,1.7,3.9,4,3.9c2.3,0,4.1-1.5,4.1-4S695,89.2,692.7,89.2z"/>
	<path class="st0" d="M712,37.3c-2,0-3.6,1.3-3.6,3.2c0,1.9,1.6,3.2,3.6,3.2c2,0,3.4-1.3,3.4-3.2C715.4,38.6,714,37.3,712,37.3z"/>
	<rect x="709.6" y="52.6" class="st0" width="4.6" height="43.5"/>
	<path class="st0" d="M742.1,91.8c-1.5,0.7-3.3,1.2-5.1,1.2c-2.8,0-3.9-1.1-3.9-4.3V56.6h8.3v-4.1H733V41h-3.8l-0.8,11.5l-5.3,1v3.1
		h5.3v33.1c0,5.1,2.7,7.3,7.9,7.3c2.2,0,5.1-0.9,6.9-1.7L742.1,91.8z"/>
</g>
</svg>
